<?xml version="1.0" encoding="utf-8"?>
<svg width="175px" height="216px" viewBox="0 0 175 216" version="1.1" xmlns:xlink="http://www.w3.org/1999/xlink" xmlns="http://www.w3.org/2000/svg">
  <desc>Created with Lunacy</desc>
  <path d="M119.881 34.4472C127.448 25.1381 131.244 15.0806 131.244 4.30889L131.244 4.30876C131.244 2.88008 131.179 1.43998 131.026 0C125.755 0.283448 120.151 1.93893 114.226 4.93242C108.288 7.97125 103.392 11.7807 99.542 16.3621C91.8308 25.4106 87.4885 36.4773 87.4885 46.8181C87.4885 48.2474 87.577 49.6074 87.7296 50.8997C99.7061 51.9088 110.75 45.5139 119.881 34.4472ZM160.162 188.67C164.471 182.302 168.19 175.375 171.332 167.85C172.628 164.659 173.846 161.335 175 157.865C169.678 155.552 164.894 152.295 160.611 148.08C151.16 139 146.351 127.564 146.21 113.821C146.056 96.1769 153.789 82.4233 169.421 72.6036C160.688 59.7341 147.556 52.5907 130.077 51.1283C123.626 50.5606 115.752 52.0018 106.422 55.4824C96.5565 59.2355 90.7368 61.1181 89.0197 61.1181C86.7228 61.1181 81.4841 59.5081 73.3253 56.3333C65.1434 53.1691 58.5595 51.559 53.5388 51.559C44.363 51.7173 35.8426 54.1901 27.9569 59.0428C20.0713 63.8954 13.7707 70.5057 9.0347 78.8855C3.00857 89.318 0 101.767 0 116.202C0 128.803 2.23142 141.818 6.68273 155.26C10.8391 167.704 16.1445 178.619 22.5976 188.032C28.6122 196.846 33.6329 203.068 37.6469 206.698C43.936 212.76 50.2365 215.645 56.5576 215.366C60.7139 215.22 66.1502 213.744 72.8983 210.912C79.6362 208.094 85.9354 206.698 91.809 206.698C97.4093 206.698 103.534 208.094 110.199 210.912C116.842 213.744 122.549 215.14 127.281 215.14C133.873 214.981 140.028 212.175 145.773 206.698C149.48 203.361 154.289 197.351 160.162 188.67Z" id="Apple-Menu" fill="#FFFFFF" fill-rule="evenodd" stroke="none" />
</svg>